	<?xml version="1.0" encoding="utf-8"?>
<!-- Generator: Adobe Illustrator 24.3.0, SVG Export Plug-In . SVG Version: 6.00 Build 0)  -->
<svg version="1.1" id="Capa_1" xmlns="http://www.w3.org/2000/svg" xmlns:xlink="http://www.w3.org/1999/xlink" x="0px" y="0px"
	 viewBox="0 0 646.2 166" style="enable-background:new 0 0 646.2 166;" xml:space="preserve">
<style type="text/css">
	.st0{fill:#FFFFFF;}
	.st1{fill:#741CF2;}
	.st2{fill:#8D4ECC;}
	.st3{fill:#EA1FBF;}
	.st4{fill:#9966FF;}
</style>
<g>
	<g>
		<g>
			<path class="st0" d="M383.1,2.9c-4.7,0-8.6,3.9-8.6,8.6v31c-7.7-5.8-17.6-9-28.4-9c-13,0-24.7,4.6-32.9,13
				c-8.2,8.3-12.6,19.8-12.6,32.6v0.6c0,13.8,5.3,26,15,34.2c0.1,0.1,0.3,0.2,0.4,0.4l0.2,0.1c0.2,0.1,0.3,0.3,0.5,0.4
				c0.3,0.3,0.7,0.5,1,0.8c0.5,0.4,1,0.7,1.4,1c7.1,5,15.8,7.8,25.2,8.1l0.9,0c0.4,0,0.7,0,1.1,0h0.2c26.7,0,45.4-18.6,45.4-45.2
				v-68c0-2.3-0.9-4.5-2.5-6.1C387.6,3.8,385.4,2.9,383.1,2.9z M346.2,108.3c-16.7,0-28.3-11.6-28.3-28.3
				c0-16.7,11.6-28.3,28.3-28.3c16.7,0,28.3,11.6,28.3,28.3C374.5,96.7,362.9,108.3,346.2,108.3z"/>
			<path class="st0" d="M477.5,46.5c-8.2-7.4-19-11.2-31.1-11.2c-26.5,0-45.7,18.8-45.7,44.7c0,25.9,19.2,44.7,45.7,44.7
				c15.3,0,28.8-6.4,37-17.6c1.8-2.5,2.1-5.8,0.7-8.5c-1.4-2.7-4.2-4.4-7.2-4.4h-0.7c-2.7,0-5.2,1.3-6.7,3.6
				c-4.8,6.9-12.8,10.6-23.1,10.6c-14.3,0-25-8.5-27.7-21.6H481c2.9,0,5.8-1.2,7.8-3.4c2-2.2,3-5.1,2.7-8
				C490.4,63.9,485.5,53.7,477.5,46.5z M419.3,70.7c3.4-11.7,13.6-19,27.1-19c13.5,0,23.5,7.2,26.9,19H419.3z"/>
			<path class="st0" d="M557.8,3.4c-1.6-1.6-3.7-2.5-6-2.5h-15.5c-22.1,0-34.8,13.3-34.8,36.6v76.4c0,4.7,3.7,8.7,8.3,8.8
				c0.1,0,0.2,0,0.3,0c2.2,0,4.4-0.9,6-2.4c1.7-1.6,2.6-3.8,2.6-6.2V64.6h19.4c4.5,0,8.2-3.5,8.3-7.9c0.1-2.2-0.7-4.3-2.3-5.9
				c-1.5-1.6-3.6-2.5-5.8-2.5h-19.6V37.4c0-13.8,5.6-20.2,17.6-20.2c1,0,2.1,0,3.5,0.1c2.3,0.1,5.8,0.3,11.9,0.3
				c4.6,0.1,8.4-3.6,8.5-8.2C560.3,7.2,559.4,5,557.8,3.4z"/>
			<path class="st0" d="M634.4,37.3c-4.7,0-8.6,3.9-8.6,8.6v35.3c0,16.9-9.1,26.6-25,26.6c-15.9,0-25-9.7-25-26.6V45.7
				c0-4.7-3.9-8.6-8.6-8.6s-8.6,3.9-8.6,8.6v35.6c0,26.5,15.5,43,40.6,43c10.9,0,20.1-3.6,26.6-10.3v9.8c0,17-8.6,25.6-25.5,25.6
				c-7.7,0-17.9-2-22.9-11.5c-1.4-2.7-4.2-4.4-7.3-4.4c-3,0-5.6,1.5-7.1,4.1c-1.5,2.5-1.5,5.6-0.1,8.2c6.9,12.5,20.5,19.6,37.4,19.6
				c12.4,0,22.8-3.4,30.1-9.8c8.3-7.3,12.6-18.1,12.6-32V45.9C643,41.2,639.1,37.3,634.4,37.3z"/>
		</g>
		<g>
			<g>
				<path class="st0" d="M322.3,147.6h9.9v2.2h-7.5v3.8h5.6v2.1h-5.6v4.8h7.7v2.2h-10.2V147.6z"/>
				<path class="st0" d="M346.7,147.6h4.7c4.9,0,8.2,3.1,8.2,7.5c0,4.4-3.3,7.5-8.2,7.5h-4.7V147.6z M351.4,160.5
					c3.5,0,5.7-2.2,5.7-5.4c0-3.2-2.2-5.3-5.7-5.3h-2.3v10.7H351.4z"/>
				<path class="st0" d="M373.8,147.6h2.4v9.1c0,2.6,1.6,4,3.8,4c2.2,0,3.7-1.4,3.7-4v-9.1h2.4v9c0,4-2.6,6.3-6.2,6.3
					c-3.6,0-6.2-2.4-6.2-6.3V147.6z"/>
				<path class="st0" d="M408.2,147.3c2.8,0,5.1,1.3,6.4,3.5l-1.8,1.3c-1.1-1.7-2.6-2.6-4.6-2.6c-3.1,0-5.4,2.4-5.4,5.6
					s2.3,5.6,5.4,5.6c2,0,3.5-0.9,4.6-2.6l1.8,1.3c-1.3,2.1-3.6,3.5-6.4,3.5c-4.3,0.1-8-3.5-7.9-7.8
					C400.2,150.8,403.9,147.3,408.2,147.3z"/>
				<path class="st0" d="M437.7,160.1H431l-1.1,2.5h-2.6l6.6-15.3h0.8l6.6,15.3h-2.6L437.7,160.1z M434.4,151.8l-2.5,6.2h5
					L434.4,151.8z"/>
				<path class="st0" d="M457.1,149.8H452v-2.2h12.6v2.2h-5.1v12.9h-2.4V149.8z"/>
				<path class="st0" d="M478.2,147.6h2.4v15h-2.4V147.6z"/>
				<path class="st0" d="M502.8,147.3c4.3-0.1,8,3.5,7.9,7.8c0.1,4.3-3.6,7.8-7.9,7.8c-4.3,0.1-8-3.5-7.9-7.8
					C494.9,150.8,498.6,147.3,502.8,147.3z M502.9,149.6c-3.1,0-5.4,2.4-5.4,5.5c0,3.2,2.3,5.6,5.4,5.6c3.1,0,5.4-2.4,5.4-5.6
					C508.3,151.9,505.9,149.6,502.9,149.6z"/>
				<path class="st0" d="M537.5,147.6v15.3h-0.8l-9.2-10.4v10.2h-2.4v-15.3h0.8l9.1,10.4v-10.1H537.5z"/>
			</g>
		</g>
	</g>
	<g>
		<g>
			<path class="st1" d="M256.4,90.2c-7.1,6.6-18.2,6.1-25.1-0.7l-29.6-30.8c-9.4-9.8-25.1-9.9-34.6-0.1l19.4-19.9
				c7.8-7.8,18.7-11.5,29.5-10.1l7.8,1c0,0,0,0,0,0c2.6,2.1,5,4.4,7.2,6.8l25.9,28.1C263.9,71.6,263.8,83.2,256.4,90.2z"/>
			<g>
				<path class="st1" d="M40.4,76.2c0-13.6,11-24.6,24.6-24.6c5.9,0,11.3,2.1,15.5,5.5l-18-18.4C54.7,31,43.8,27.2,32.9,28.6l-7.8,1
					c0,0,0,0,0,0l-0.4,0.3C11.6,41,3.2,57.6,3.2,76.2c0,18.7,8.5,35.5,21.8,46.6c0,0,0.1,0,0.1,0c0,0,0,0,0,0c0,0,0,0,0,0
					c29.5,5.7,37-9.3,54.6-27c-4.1,3.1-9.2,4.9-14.8,4.9C51.4,100.8,40.4,89.8,40.4,76.2z"/>
				<path class="st2" d="M80.4,57.1l3.9,4C83.2,59.6,81.9,58.3,80.4,57.1z"/>
			</g>
			<g>
				<path class="st3" d="M176.1,103.8l-67.4-70l0,0c-1.4-1.5-2.9-2.9-4.6-4.2c-24.6-19.4-56.2-19.1-79-0.2c0,0,0,0,0,0l7.8-1
					c10.9-1.4,21.8,2.4,29.5,10.1l88.1,90.1c6.9,6.9,18,7.4,25.1,0.7C183.1,122.6,183.3,111,176.1,103.8z"/>
			</g>
		</g>
		<g>
			<g>
				<path class="st4" d="M222.9,28.9c-5.2-4.2-11.1-7.5-17.4-9.9l0,0c-20.1-7.4-41.6-4-60,10c-9.4,8.1-54.6,55.5-63.8,64.7
					c-19.1,18.5-26.1,34.9-56.7,29c0,0,0,0,0,0c2.5,2.1,5.2,4,8,5.6c3.2,1.9,6.7,3.6,10.2,4.9l0,0c20.1,7.4,41.6,4,60-10
					c9.3-8.1,54.6-55.5,63.8-64.7c19.2-18.5,26.1-34.9,56.7-29c0,0,0,0,0,0C223.4,29.3,223.2,29.1,222.9,28.9z"/>
			</g>
		</g>
	</g>
</g>
</svg>
