<svg xmlns="http://www.w3.org/2000/svg" width="1461.538" height="416.923"><rect id="backgroundrect" width="100%" height="100%" x="0" y="0" fill="none" stroke="none"/><style>.st0{fill:#1c75bc}</style><g class="currentLayer"><path id="XMLID_24_" class="st0" d="M24.14 173.094h103.908V150.72H24.14V71.922h116.132V48.963H2.408V268.82H24.14z"/><path id="XMLID_80_" class="st0" d="M419.906 88.654L543.848 268.82h17.318V48.963h-21.223v176.274L419.057 48.963h-20.204V268.82h21.053z"/><path id="XMLID_84_" class="st0" d="M731.459 169.592c-10.187-9.533-25.977-17.121-47.37-22.57-10.527-2.528-19.355-5.252-25.977-7.976-6.791-2.919-12.054-6.032-15.96-9.34-3.905-3.501-6.451-7.198-7.98-11.284-1.527-4.086-2.207-8.755-2.207-14.008v-.584c0-10.117 3.736-18.483 11.036-25.293 7.301-6.81 17.318-10.117 29.882-10.117 9.848 0 19.356 1.945 28.354 5.642 8.999 3.697 17.997 9.923 26.996 18.289l12.564-19.067c-9.848-8.95-20.035-15.76-30.561-20.235-10.527-4.475-22.751-6.81-36.843-6.81-9.169 0-17.488 1.557-25.298 4.475-7.64 3.113-14.432 7.2-20.035 12.647-5.602 5.253-10.017 11.674-13.243 19.067-3.056 7.393-4.584 15.37-4.584 23.931v.584c0 8.95 1.358 16.927 3.905 23.542 2.547 6.615 6.452 12.647 11.885 17.51 5.263 5.06 12.055 9.34 20.204 12.842 8.15 3.502 17.658 6.615 28.694 9.339 10.017 2.53 18.336 5.058 24.788 7.782 6.452 2.724 11.545 5.837 15.28 9.145 3.736 3.307 6.283 7.004 7.641 11.09 1.528 4.086 2.207 8.56 2.207 13.62v.583c0 10.895-3.905 19.845-11.715 26.85-7.81 7.004-18.167 10.506-31.07 10.506-13.413 0-25.128-2.53-35.315-7.783-10.187-5.058-20.374-12.84-30.392-23.347l-13.413 18.289c11.546 11.868 23.6 20.818 36.334 26.46 12.734 5.837 26.656 8.561 42.107 8.561 9.507 0 18.336-1.556 26.316-4.475 7.98-2.918 14.941-7.199 20.544-12.646 5.772-5.448 10.187-12.063 13.413-19.651 3.226-7.588 4.923-16.149 4.923-25.683v-.194c.17-16.732-4.923-29.963-15.11-39.69z"/><path id="XMLID_85_" d="M786.129 71.338h120.207L782.054 252.281v16.538h153.824v-22.18H811.427L935.878 65.696V48.963H786.13z"/><path id="XMLID_88_" d="M1454.737 115.115c-4.924-13.23-11.885-24.904-21.053-34.633-8.999-9.922-19.865-17.51-32.429-23.153-12.564-5.642-26.316-8.366-41.257-8.366h-66.555V268.82h66.555c14.94 0 28.693-2.918 41.257-8.56 12.564-5.643 23.26-13.425 32.429-23.154 8.998-9.922 15.96-21.402 21.053-34.826 4.924-13.425 7.47-27.823 7.47-43.388v-.583c0-15.566-2.546-29.963-7.47-43.193zm-14.94 44.554c0 12.063-1.869 23.543-5.604 34.049-3.735 10.506-8.998 19.65-15.96 27.433-6.79 7.783-15.28 13.814-25.127 18.29-9.848 4.474-20.884 6.614-32.938 6.614h-44.993V71.922h44.993c12.054 0 23.09 2.334 32.938 6.81 9.847 4.474 18.166 10.7 25.128 18.483 6.79 7.782 12.224 17.121 15.96 27.628 3.734 10.506 5.602 21.985 5.602 34.048v.778z"/><path id="XMLID_92_" d="M1161.011 115.115c-4.584-13.62-11.205-25.683-19.864-36.19-8.66-10.31-18.846-18.677-30.901-24.709-12.055-6.031-25.298-9.144-39.9-9.144-14.6 0-28.013 3.113-40.068 9.339-12.055 6.226-22.411 14.398-30.9 24.904-.68.778-1.19 1.557-1.868 2.335l-6.452 9.339c-4.754 7.588-8.659 15.76-11.715 24.71-4.754 13.813-7.131 28.21-7.131 43.387v.583c0 15.176 2.377 29.574 6.961 43.193 4.584 13.814 11.206 25.683 19.865 36.189 8.659 10.312 18.846 18.678 30.9 24.71 11.885 6.03 25.298 9.144 39.9 9.144 14.6 0 28.014-3.113 40.068-9.34 12.055-6.225 22.412-14.397 30.901-24.903.68-.778 1.189-1.557 1.868-2.335l6.452-9.339c4.584-7.393 8.489-15.76 11.545-24.515 4.754-13.814 7.13-28.211 7.13-43.387.17-.195.17-.39 0-.584.34-15.176-2.037-29.573-6.79-43.387zm-15.45 44.554c0 12.647-1.868 24.32-5.603 35.216-2.037 5.837-4.414 11.285-7.3 16.344l-6.113 9.533c-.679.973-1.358 1.751-2.037 2.724-6.622 8.172-14.432 14.592-23.77 19.262-9.168 4.67-19.355 7.004-30.221 7.004-11.036 0-21.054-2.335-30.222-7.199-9.168-4.864-17.148-11.285-23.94-19.456-6.79-8.172-12.054-17.705-15.79-28.795-3.734-11.09-5.602-22.764-5.602-35.41v-.584c0-12.647 1.868-24.32 5.603-35.216 2.037-5.837 4.414-11.285 7.3-16.344l6.113-9.533c.679-.973 1.358-1.751 2.037-2.724 6.622-8.172 14.432-14.592 23.77-19.262 9.168-4.67 19.355-7.004 30.221-7.004 11.036 0 21.053 2.335 30.222 7.199 9.168 4.864 17.148 11.284 23.94 19.456 6.79 8.172 12.054 17.705 15.79 28.795 3.734 11.09 5.602 22.764 5.602 35.41v.584z"/><path id="XMLID_93_" class="st0" d="M559.298 388.67c-109.51 0-201.363-47.279-202.212-47.668-.51-.195-43.295-20.624-103.398-31.13l-9.339-1.557c-3.565-.583-7.47-.973-11.545-1.556-1.698-.195-3.565-.39-5.263-.584l-2.038-.194c-18.676-1.752-35.994-2.335-36.163-2.335H189c-2.377 3.696-4.414 7.004-6.452 9.923-1.698 2.529-3.565 5.058-5.433 7.587l29.033 1.946c49.577 5.448 99.324 20.624 148.221 45.333 58.745 29.768 120.037 44.75 182.008 44.75 10.697 0 21.563-.39 32.09-1.362 68.083-6.032 120.885-28.407 157.05-66.93a57.162 57.162 0 01-4.585 2.335c-47.2 27.433-101.7 41.442-161.634 41.442z"/><path id="XMLID_94_" class="st0" d="M140.951 305.786c-48.728 6.031-92.362 22.375-130.394 49.224 28.354-13.23 69.612-28.017 120.547-32.88 3.395-5.254 6.621-10.702 9.847-16.344z"/><path id="XMLID_110_" class="st0" d="M241.803 60.832c96.607 45.527 92.702 235.226 92.702 235.226C396.815 85.152 210.053 1.685 210.053 1.685c21.902 119.85-11.885 222.19-43.465 286.201-2.037 4.086-3.905 7.977-5.942 11.674-.51.973-1.019 2.14-1.528 3.113-1.528 2.918-3.056 5.642-4.584 8.366-2.886 5.253-5.773 10.117-8.49 14.592a92.388 92.388 0 01-4.074 6.421c-1.189 1.946-2.377 3.697-3.396 5.448-.679.973-1.358 2.14-2.037 3.113-7.64 11.479-12.564 17.705-12.564 17.705 6.282-5.642 12.054-11.48 17.657-17.316 1.189-1.168 2.207-2.53 3.396-3.697 1.358-1.556 2.717-2.918 4.075-4.475 2.037-2.335 4.075-4.864 6.112-7.393 3.735-4.475 7.13-8.95 10.527-13.62 2.037-2.723 3.905-5.447 5.772-8.171l3.056-4.67c2.547-3.696 4.924-7.588 7.131-11.479 63.5-105.258 60.104-226.665 60.104-226.665z"/><path id="XMLID_111_" d="M1215.682 86.514v182.305h21.732V48.963h-21.732z"/></g></svg>